<?xml version="1.0" encoding="UTF-8"?><svg id="Layer_1" xmlns="http://www.w3.org/2000/svg" xmlns:xlink="http://www.w3.org/1999/xlink" viewBox="0 0 262.84 37.63"><defs><linearGradient id="New_Gradient_Swatch" x1="43.14" y1="-4.33" x2="67.37" y2="45.72" gradientUnits="userSpaceOnUse"><stop offset="0" stop-color="#fff"/><stop offset=".05" stop-color="#f8f1e0"/><stop offset=".13" stop-color="#eedfb3"/><stop offset=".22" stop-color="#e6ce8c"/><stop offset=".31" stop-color="#dec06b"/><stop offset=".41" stop-color="#d9b550"/><stop offset=".51" stop-color="#d4ac3b"/><stop offset=".63" stop-color="#d1a62d"/><stop offset=".77" stop-color="#cfa324"/><stop offset="1" stop-color="#cfa222"/></linearGradient><linearGradient id="New_Gradient_Swatch-2" x1="55" y1="39.81" x2="55.29" y2="-17.89" xlink:href="#New_Gradient_Swatch"/></defs><path d="M31.4.56v36.51h-5.22v-16.27H5.22v16.27H0V.56h5.22v15.7h20.97V.56h5.22Z" fill="#fff"/><path d="M74.17.56h5.21v31.97h19.77v4.54h-24.98V.56Z" fill="#fff"/><path d="M105.16.56h5.21v36.51h-5.21V.56Z" fill="#fff"/><path d="M121.33.56h15.39c11.73,0,19.71,7.41,19.71,18.25s-7.98,18.25-19.71,18.25h-15.39V.56ZM136.4,32.53c9.02,0,14.81-5.53,14.81-13.72s-5.79-13.72-14.81-13.72h-9.86v27.43h9.86Z" fill="#fff"/><path d="M187.15,27.94h-19.4l-4.02,9.13h-5.37L174.89.56h5.16l16.58,36.51h-5.48l-4.02-9.13ZM185.32,23.77l-7.88-17.89-7.88,17.89h15.75Z" fill="#fff"/><path d="M229.35,32.53v4.54h-30.51v-3.55l22.95-28.42h-22.58V.56h29.47v3.55l-22.84,28.42h23.52Z" fill="#fff"/><path d="M262.84,32.53v4.54h-26.49V.56h25.76v4.54h-20.55v11.21h18.31v4.43h-18.31v11.79h21.28Z" fill="#fff"/><path d="M61.56,15.59c0,2.25-.86,4.49-2.57,6.21l-6.2,6.2h0s-6.21-6.2-6.21-6.2c-.12-.12-.24-.24-.35-.37-3.08-3.45-2.96-8.74.35-12.05,1.71-1.71,3.96-2.57,6.21-2.57s4.49.86,6.21,2.57,2.57,3.96,2.57,6.21Z" fill="none"/><path d="M68.37,15.58c0,3.99-1.52,7.98-4.56,11.02l-11.02,11.02-11.02-11.02c-6.09-6.09-6.09-15.96,0-22.04,3.04-3.04,7.03-4.56,11.02-4.56,2.83,0,5.67.77,8.16,2.3-1.81-.98-3.81-1.47-5.81-1.47-3.12,0-6.25,1.19-8.64,3.58-4.68,4.69-4.77,12.22-.26,17.01.11.12.23.25.35.37l6.21,6.21h0s2.34,2.34,2.34,2.34l8.64-8.64c2.39-2.39,3.58-5.51,3.58-8.64,0-2.29-.64-4.58-1.92-6.59,1.96,2.71,2.94,5.91,2.94,9.12Z" fill="url(#New_Gradient_Swatch)"/><path d="M61.56,15.59c0,2.25-.86,4.49-2.57,6.21l-6.2,6.2h0s-6.21-6.2-6.21-6.2c-.12-.12-.24-.24-.35-.37-3.08-3.45-2.96-8.74.35-12.05,1.71-1.71,3.96-2.57,6.21-2.57s4.49.86,6.21,2.57,2.57,3.96,2.57,6.21Z" fill="none"/><path d="M67.35,13.05c0,3.13-1.19,6.25-3.58,8.64l-8.64,8.64-2.34-2.34,6.2-6.2c1.71-1.71,2.57-3.96,2.57-6.21s-.86-4.49-2.57-6.21-3.96-2.57-6.21-2.57-4.49.86-6.21,2.57c-3.31,3.31-3.42,8.6-.35,12.05-4.51-4.79-4.42-12.33.26-17.01,2.39-2.39,5.52-3.58,8.64-3.58,2,0,4,.49,5.81,1.47,1.02.62,1.98,1.38,2.86,2.26.6.6,1.14,1.24,1.62,1.9,1.28,2,1.92,4.29,1.92,6.59Z" fill="url(#New_Gradient_Swatch-2)"/><path d="M58.99,9.38c1.71,1.71,2.57,3.96,2.57,6.21s-.86,4.49-2.57,6.21l-6.2,6.2-6.3-6.3c-.09-.09-.18-.18-.26-.27-3.08-3.45-2.96-8.74.35-12.05,1.71-1.71,3.96-2.57,6.21-2.57s4.49.86,6.21,2.57Z" fill="none"/><path d="M65.43,6.47c-.48-.67-1.02-1.3-1.62-1.9-.88-.88-1.84-1.64-2.86-2.26,1.02.55,1.97,1.25,2.83,2.11.64.64,1.19,1.33,1.65,2.05Z" fill="none"/></svg>